<svg xmlns="http://www.w3.org/2000/svg" xmlns:xlink="http://www.w3.org/1999/xlink" width="250" zoomAndPan="magnify" viewBox="0 0 187.5 187.499992" height="250" preserveAspectRatio="xMidYMid meet" version="1.0"><defs><g/></defs><path fill="#004aad" d="M 95.59375 121.492188 C 95.613281 117.25 95.640625 112.859375 95.660156 112.382812 C 95.6875 111.632812 95.738281 110.964844 95.777344 110.382812 C 101.738281 109.117188 106.25 103.128906 106.25 95.933594 C 106.25 87.820312 100.503906 71.902344 93.417969 71.902344 C 92.820312 71.902344 92.234375 72.023438 91.664062 72.230469 L 91.648438 72.234375 C 91.457031 72.308594 91.265625 72.394531 91.078125 72.484375 L 91.042969 72.5 C 90.855469 72.59375 90.671875 72.695312 90.488281 72.8125 L 90.445312 72.832031 C 90.261719 72.949219 90.082031 73.066406 89.902344 73.199219 L 89.859375 73.230469 C 89.683594 73.367188 89.507812 73.507812 89.332031 73.65625 L 89.292969 73.691406 C 89.113281 73.84375 88.941406 74 88.769531 74.171875 L 88.734375 74.207031 C 88.558594 74.375 88.390625 74.554688 88.214844 74.742188 L 88.199219 74.765625 C 86.410156 76.738281 84.84375 79.535156 83.601562 82.582031 L 83.578125 82.628906 C 83.476562 82.886719 83.371094 83.148438 83.273438 83.410156 C 83.25 83.46875 83.226562 83.527344 83.203125 83.585938 C 83.113281 83.820312 83.03125 84.054688 82.945312 84.296875 C 82.914062 84.378906 82.878906 84.46875 82.851562 84.554688 C 82.769531 84.777344 82.695312 84.996094 82.625 85.214844 C 82.585938 85.324219 82.550781 85.425781 82.519531 85.53125 C 82.449219 85.738281 82.386719 85.945312 82.320312 86.148438 C 82.285156 86.273438 82.246094 86.394531 82.207031 86.515625 C 82.152344 86.707031 82.089844 86.90625 82.035156 87.097656 C 81.996094 87.230469 81.960938 87.359375 81.925781 87.496094 C 81.871094 87.679688 81.824219 87.863281 81.773438 88.042969 C 81.738281 88.1875 81.699219 88.332031 81.664062 88.472656 C 81.617188 88.648438 81.574219 88.824219 81.539062 88.996094 C 81.5 89.144531 81.464844 89.292969 81.429688 89.441406 C 81.390625 89.609375 81.355469 89.769531 81.320312 89.9375 C 81.285156 90.089844 81.253906 90.242188 81.226562 90.398438 C 81.191406 90.554688 81.15625 90.710938 81.128906 90.867188 C 81.097656 91.023438 81.074219 91.183594 81.042969 91.335938 C 81.015625 91.484375 80.992188 91.632812 80.964844 91.777344 C 80.941406 91.941406 80.914062 92.097656 80.894531 92.257812 C 80.871094 92.394531 80.851562 92.535156 80.828125 92.671875 C 80.808594 92.832031 80.789062 92.996094 80.769531 93.15625 C 80.753906 93.28125 80.734375 93.40625 80.722656 93.535156 C 80.707031 93.703125 80.6875 93.867188 80.675781 94.035156 C 80.667969 94.144531 80.65625 94.261719 80.644531 94.371094 C 80.632812 94.550781 80.625 94.722656 80.617188 94.894531 C 80.609375 94.988281 80.601562 95.082031 80.597656 95.171875 C 80.585938 95.433594 80.582031 95.683594 80.582031 95.933594 C 80.582031 96.347656 80.597656 96.757812 80.628906 97.164062 C 80.632812 97.214844 80.636719 97.269531 80.640625 97.324219 C 80.671875 97.710938 80.71875 98.089844 80.773438 98.46875 C 80.785156 98.535156 80.796875 98.59375 80.804688 98.65625 C 80.867188 99.035156 80.941406 99.40625 81.027344 99.769531 C 81.039062 99.820312 81.050781 99.867188 81.0625 99.917969 C 81.152344 100.296875 81.261719 100.679688 81.378906 101.046875 L 81.382812 101.054688 C 81.511719 101.445312 81.652344 101.832031 81.808594 102.210938 L 81.808594 102.21875 C 81.964844 102.59375 82.132812 102.953125 82.3125 103.304688 L 82.335938 103.351562 C 82.519531 103.707031 82.710938 104.050781 82.914062 104.382812 L 82.917969 104.386719 C 84.8125 107.46875 87.703125 109.671875 91.054688 110.382812 C 91.09375 110.964844 91.144531 111.632812 91.171875 112.382812 C 91.191406 112.859375 91.210938 117.25 91.238281 121.492188 C 80.84375 120.730469 71.957031 114.542969 67.398438 105.75 C 69.488281 101.71875 70.664062 97.148438 70.664062 92.289062 C 70.664062 87.4375 69.488281 82.863281 67.398438 78.832031 C 72.269531 69.429688 82.089844 63.003906 93.414062 63.003906 C 104.945312 63.003906 114.917969 69.664062 119.695312 79.351562 C 117.777344 83.246094 116.703125 87.625 116.703125 92.261719 C 116.703125 96.90625 117.789062 101.296875 119.710938 105.199219 C 115.242188 114.28125 106.203125 120.710938 95.59375 121.492188 " fill-opacity="1" fill-rule="nonzero"/><path fill="#004aad" d="M 43.550781 121.492188 C 43.578125 117.027344 43.605469 112.128906 43.625 111.625 C 43.652344 110.789062 43.714844 110.054688 43.753906 109.4375 C 47.960938 107.898438 51.085938 102.390625 51.148438 95.796875 L 51.136719 95.796875 C 51.136719 95.6875 51.144531 95.582031 51.136719 95.472656 C 50.542969 88.289062 49.9375 81.097656 49.339844 73.921875 C 49.226562 72.539062 48.847656 71.433594 48.492188 71.433594 C 48.140625 71.441406 47.8125 72.570312 47.757812 73.953125 C 47.480469 81.152344 47.203125 88.359375 46.925781 95.566406 C 46.921875 95.648438 46.933594 95.71875 46.9375 95.796875 L 46.027344 95.796875 C 46.035156 95.707031 46.046875 95.625 46.042969 95.53125 C 45.628906 88.328125 45.222656 81.132812 44.8125 73.9375 C 44.738281 72.550781 44.382812 71.433594 44.03125 71.429688 C 43.679688 71.429688 43.320312 72.542969 43.234375 73.929688 C 42.761719 81.117188 42.292969 88.316406 41.820312 95.515625 C 41.8125 95.613281 41.824219 95.703125 41.828125 95.796875 L 40.925781 95.796875 C 40.929688 95.710938 40.9375 95.628906 40.933594 95.542969 C 40.5625 88.335938 40.1875 81.136719 39.808594 73.9375 C 39.738281 72.554688 39.390625 71.433594 39.039062 71.429688 C 38.683594 71.429688 38.328125 72.542969 38.226562 73.929688 C 37.726562 81.113281 37.222656 88.3125 36.71875 95.503906 C 36.710938 95.605469 36.71875 95.703125 36.722656 95.796875 L 35.820312 95.796875 C 35.820312 95.71875 35.832031 95.648438 35.832031 95.566406 C 35.570312 88.882812 35.316406 82.203125 35.058594 75.523438 L 35.058594 75.519531 C 35.035156 75 35.019531 74.476562 34.996094 73.953125 C 34.941406 72.570312 34.613281 71.441406 34.261719 71.433594 L 34.257812 71.433594 C 33.90625 71.433594 33.53125 72.539062 33.417969 73.921875 C 32.816406 81.097656 32.210938 88.289062 31.617188 95.472656 C 31.609375 95.582031 31.613281 95.6875 31.617188 95.796875 L 31.605469 95.796875 C 31.609375 96.253906 31.632812 96.699219 31.664062 97.140625 C 31.675781 97.285156 31.691406 97.429688 31.707031 97.574219 C 31.734375 97.863281 31.765625 98.15625 31.804688 98.445312 C 31.828125 98.617188 31.855469 98.785156 31.882812 98.953125 C 31.925781 99.203125 31.972656 99.457031 32.023438 99.707031 C 32.058594 99.886719 32.097656 100.058594 32.140625 100.234375 C 32.195312 100.464844 32.253906 100.691406 32.316406 100.914062 C 32.363281 101.097656 32.414062 101.273438 32.46875 101.449219 C 32.53125 101.65625 32.601562 101.851562 32.671875 102.050781 C 32.734375 102.234375 32.796875 102.421875 32.863281 102.605469 L 32.886719 102.652344 C 33.113281 103.234375 33.371094 103.78125 33.648438 104.308594 C 33.691406 104.386719 33.730469 104.472656 33.773438 104.550781 C 33.902344 104.785156 34.042969 105.015625 34.183594 105.238281 C 34.226562 105.308594 34.273438 105.378906 34.316406 105.449219 C 34.46875 105.679688 34.621094 105.898438 34.78125 106.113281 C 34.820312 106.160156 34.855469 106.210938 34.890625 106.257812 C 35.066406 106.480469 35.246094 106.703125 35.433594 106.917969 L 35.445312 106.929688 C 36.488281 108.09375 37.691406 108.957031 39.003906 109.4375 C 39.03125 109.84375 39.066406 110.296875 39.09375 110.796875 C 39.097656 110.859375 39.101562 110.925781 39.105469 110.988281 C 39.117188 111.195312 39.128906 111.402344 39.132812 111.625 C 39.15625 112.128906 39.179688 117.027344 39.207031 121.492188 C 24.046875 120.378906 12.089844 107.734375 12.089844 92.289062 C 12.089844 76.117188 25.203125 63.003906 41.375 63.003906 C 52.699219 63.003906 62.523438 69.429688 67.398438 78.832031 C 65.308594 82.863281 64.125 87.4375 64.125 92.289062 C 64.125 97.144531 65.308594 101.71875 67.398438 105.75 C 62.835938 114.542969 53.949219 120.730469 43.550781 121.492188 " fill-opacity="1" fill-rule="nonzero"/><path fill="#004aad" d="M 67.398438 105.75 C 65.308594 101.71875 64.125 97.144531 64.125 92.289062 C 64.125 87.4375 65.308594 82.863281 67.398438 78.832031 C 69.488281 82.863281 70.664062 87.4375 70.664062 92.289062 C 70.664062 97.148438 69.488281 101.71875 67.398438 105.75 " fill-opacity="1" fill-rule="nonzero"/><path fill="#004aad" d="M 146.863281 121.527344 C 146.855469 119.867188 146.875 118.316406 146.917969 116.941406 C 146.921875 116.75 146.925781 116.035156 146.933594 115.042969 L 148.253906 115.042969 C 149.945312 115.042969 151.3125 113.679688 151.3125 111.992188 C 151.3125 111.992188 151.328125 69.8125 146.425781 69.8125 C 145.921875 69.8125 145.445312 69.953125 145.019531 70.183594 C 144.675781 70.367188 144.375 70.605469 144.125 70.902344 L 144.039062 71.003906 C 143.96875 71.085938 143.910156 71.164062 143.851562 71.253906 C 143.773438 71.378906 143.699219 71.507812 143.636719 71.644531 C 143.617188 71.691406 143.597656 71.746094 143.582031 71.796875 C 143.53125 71.917969 143.492188 72.039062 143.460938 72.164062 C 143.449219 72.21875 143.4375 72.269531 143.429688 72.324219 C 143.394531 72.503906 143.367188 72.679688 143.367188 72.871094 C 143.367188 72.871094 143.441406 116.519531 143.449219 116.941406 C 143.488281 118.292969 143.503906 119.8125 143.5 121.4375 C 133.039062 120.554688 124.140625 114.175781 119.710938 105.199219 C 121.625 101.304688 122.703125 96.925781 122.703125 92.289062 C 122.703125 87.648438 121.621094 83.253906 119.695312 79.351562 C 124.46875 69.652344 134.453125 62.972656 145.992188 62.972656 C 162.167969 62.972656 175.28125 76.085938 175.28125 92.261719 C 175.28125 108.144531 162.632812 121.066406 146.863281 121.527344 " fill-opacity="1" fill-rule="nonzero"/><path fill="#004aad" d="M 119.710938 105.199219 C 117.789062 101.296875 116.703125 96.90625 116.703125 92.261719 C 116.703125 87.625 117.777344 83.246094 119.695312 79.351562 C 121.621094 83.253906 122.703125 87.648438 122.703125 92.289062 C 122.703125 96.925781 121.625 101.304688 119.710938 105.199219 " fill-opacity="1" fill-rule="nonzero"/><g fill="#a8a8a8" fill-opacity="1"><g transform="translate(93.749996, 179.94576)"><g/></g></g></svg>