<svg xmlns="http://www.w3.org/2000/svg" xmlns:xlink="http://www.w3.org/1999/xlink" width="50" zoomAndPan="magnify" viewBox="0 0 37.5 37.499999" height="50" preserveAspectRatio="xMidYMid meet" version="1.0"><defs><clipPath id="50a27e8a4c"><path d="M 2.699219 3.976562 L 34.949219 3.976562 L 34.949219 31 L 2.699219 31 Z M 2.699219 3.976562 " clip-rule="nonzero"/></clipPath><clipPath id="d09acd5139"><path d="M 2.699219 31 L 34.949219 31 L 34.949219 33 L 2.699219 33 Z M 2.699219 31 " clip-rule="nonzero"/></clipPath><clipPath id="1c5087254c"><path d="M 2.699219 33 L 34.949219 33 L 34.949219 33.976562 L 2.699219 33.976562 Z M 2.699219 33 " clip-rule="nonzero"/></clipPath></defs><g clip-path="url(#50a27e8a4c)"><path fill="#000000" d="M 34.9375 9.089844 C 34.9375 7.933594 33.996094 6.988281 32.839844 6.988281 L 31.328125 6.988281 L 31.328125 5.242188 C 31.328125 4.542969 30.761719 3.972656 30.0625 3.972656 L 29.226562 3.972656 C 28.53125 3.972656 27.960938 4.542969 27.960938 5.242188 L 27.960938 6.988281 L 25.917969 6.988281 L 25.917969 5.242188 C 25.917969 4.542969 25.347656 3.972656 24.648438 3.972656 L 23.816406 3.972656 C 23.117188 3.972656 22.550781 4.542969 22.550781 5.242188 L 22.550781 6.988281 L 20.503906 6.988281 L 20.503906 5.242188 C 20.503906 4.542969 19.9375 3.972656 19.238281 3.972656 L 18.402344 3.972656 C 17.703125 3.972656 17.136719 4.542969 17.136719 5.242188 L 17.136719 6.988281 L 15.089844 6.988281 L 15.089844 5.242188 C 15.089844 4.542969 14.523438 3.972656 13.824219 3.972656 L 12.992188 3.972656 C 12.292969 3.972656 11.722656 4.542969 11.722656 5.242188 L 11.722656 6.988281 L 9.679688 6.988281 L 9.679688 5.242188 C 9.679688 4.542969 9.113281 3.972656 8.414062 3.972656 L 7.578125 3.972656 C 6.878906 3.972656 6.3125 4.542969 6.3125 5.242188 L 6.3125 6.988281 L 4.800781 6.988281 C 3.644531 6.988281 2.703125 7.933594 2.703125 9.089844 L 2.703125 30.550781 C 2.703125 30.742188 2.859375 30.898438 3.046875 30.898438 L 34.59375 30.898438 C 34.78125 30.898438 34.9375 30.742188 34.9375 30.550781 Z M 28.648438 5.242188 C 28.648438 4.921875 28.910156 4.664062 29.226562 4.664062 L 30.0625 4.664062 C 30.382812 4.664062 30.640625 4.921875 30.640625 5.242188 L 30.640625 7.332031 C 30.640625 7.332031 30.640625 7.332031 30.640625 7.335938 L 30.640625 9.425781 C 30.640625 9.746094 30.382812 10.003906 30.0625 10.003906 L 29.226562 10.003906 C 28.910156 10.003906 28.648438 9.746094 28.648438 9.425781 Z M 23.238281 7.335938 C 23.238281 7.332031 23.238281 7.332031 23.238281 7.332031 L 23.238281 5.242188 C 23.238281 4.921875 23.496094 4.664062 23.816406 4.664062 L 24.648438 4.664062 C 24.96875 4.664062 25.226562 4.921875 25.226562 5.242188 L 25.226562 9.425781 C 25.226562 9.746094 24.96875 10.003906 24.648438 10.003906 L 23.816406 10.003906 C 23.496094 10.003906 23.238281 9.746094 23.238281 9.425781 Z M 17.824219 7.335938 C 17.824219 7.332031 17.824219 7.332031 17.824219 7.332031 L 17.824219 5.242188 C 17.824219 4.921875 18.085938 4.664062 18.402344 4.664062 L 19.238281 4.664062 C 19.558594 4.664062 19.816406 4.921875 19.816406 5.242188 L 19.816406 7.332031 C 19.816406 7.332031 19.816406 7.332031 19.816406 7.335938 L 19.816406 9.425781 C 19.816406 9.746094 19.558594 10.003906 19.238281 10.003906 L 18.402344 10.003906 C 18.085938 10.003906 17.824219 9.746094 17.824219 9.425781 Z M 12.414062 5.242188 C 12.414062 4.921875 12.671875 4.664062 12.992188 4.664062 L 13.824219 4.664062 C 14.144531 4.664062 14.402344 4.921875 14.402344 5.242188 L 14.402344 9.425781 C 14.402344 9.746094 14.144531 10.003906 13.824219 10.003906 L 12.992188 10.003906 C 12.671875 10.003906 12.414062 9.746094 12.414062 9.425781 Z M 7 7.335938 C 7 7.335938 7 7.335938 7 7.332031 L 7 5.242188 C 7 4.921875 7.257812 4.664062 7.578125 4.664062 L 8.414062 4.664062 C 8.730469 4.664062 8.992188 4.921875 8.992188 5.242188 L 8.992188 9.425781 C 8.992188 9.746094 8.730469 10.003906 8.414062 10.003906 L 7.578125 10.003906 C 7.257812 10.003906 7 9.746094 7 9.425781 Z M 34.25 30.207031 L 3.390625 30.207031 L 3.390625 9.089844 C 3.390625 8.3125 4.023438 7.679688 4.800781 7.679688 L 6.3125 7.679688 L 6.3125 9.425781 C 6.3125 10.125 6.878906 10.695312 7.578125 10.695312 L 8.414062 10.695312 C 9.113281 10.695312 9.679688 10.125 9.679688 9.425781 L 9.679688 7.679688 L 11.722656 7.679688 L 11.722656 9.425781 C 11.722656 10.125 12.292969 10.695312 12.992188 10.695312 L 13.824219 10.695312 C 14.523438 10.695312 15.089844 10.125 15.089844 9.425781 L 15.089844 7.679688 L 17.136719 7.679688 L 17.136719 9.425781 C 17.136719 10.125 17.703125 10.695312 18.402344 10.695312 L 19.238281 10.695312 C 19.9375 10.695312 20.503906 10.125 20.503906 9.425781 L 20.503906 7.679688 L 22.550781 7.679688 L 22.550781 9.425781 C 22.550781 10.125 23.117188 10.695312 23.816406 10.695312 L 24.648438 10.695312 C 25.347656 10.695312 25.917969 10.125 25.917969 9.425781 L 25.917969 7.679688 L 27.960938 7.679688 L 27.960938 9.425781 C 27.960938 10.125 28.53125 10.695312 29.226562 10.695312 L 30.0625 10.695312 C 30.761719 10.695312 31.328125 10.125 31.328125 9.425781 L 31.328125 7.679688 L 32.839844 7.679688 C 33.617188 7.679688 34.25 8.3125 34.25 9.089844 Z M 34.25 30.207031 " fill-opacity="1" fill-rule="nonzero"/></g><path fill="#000000" d="M 31.90625 12.246094 L 5.734375 12.246094 C 5.546875 12.246094 5.390625 12.402344 5.390625 12.589844 L 5.390625 28.132812 C 5.390625 28.324219 5.546875 28.476562 5.734375 28.476562 L 31.90625 28.476562 C 32.09375 28.476562 32.25 28.324219 32.25 28.132812 L 32.25 12.589844 C 32.25 12.402344 32.09375 12.246094 31.90625 12.246094 Z M 11.933594 27.789062 L 6.078125 27.789062 L 6.078125 23.296875 L 11.933594 23.296875 Z M 11.933594 22.605469 L 6.078125 22.605469 L 6.078125 18.117188 L 11.933594 18.117188 Z M 11.933594 17.425781 L 6.078125 17.425781 L 6.078125 12.9375 L 11.933594 12.9375 Z M 18.476562 27.789062 L 12.621094 27.789062 L 12.621094 23.296875 L 18.476562 23.296875 Z M 18.476562 22.605469 L 12.621094 22.605469 L 12.621094 18.117188 L 18.476562 18.117188 Z M 18.476562 17.425781 L 12.621094 17.425781 L 12.621094 12.9375 L 18.476562 12.9375 Z M 25.019531 27.789062 L 19.164062 27.789062 L 19.164062 23.296875 L 25.019531 23.296875 Z M 25.019531 22.605469 L 19.164062 22.605469 L 19.164062 18.117188 L 25.019531 18.117188 Z M 25.019531 17.425781 L 19.164062 17.425781 L 19.164062 12.9375 L 25.019531 12.9375 Z M 31.5625 27.789062 L 25.707031 27.789062 L 25.707031 23.296875 L 31.5625 23.296875 Z M 31.5625 22.605469 L 25.707031 22.605469 L 25.707031 18.117188 L 31.5625 18.117188 Z M 31.5625 17.425781 L 25.707031 17.425781 L 25.707031 12.9375 L 31.5625 12.9375 Z M 31.5625 17.425781 " fill-opacity="1" fill-rule="nonzero"/><path fill="#000000" d="M 14.742188 21.714844 C 14.792969 21.765625 14.855469 21.796875 14.917969 21.808594 C 14.941406 21.8125 14.960938 21.816406 14.984375 21.816406 C 15.074219 21.816406 15.160156 21.78125 15.226562 21.714844 L 17.4375 19.496094 C 17.570312 19.363281 17.570312 19.144531 17.4375 19.007812 C 17.304688 18.875 17.085938 18.875 16.953125 19.007812 L 14.984375 20.984375 L 14.148438 20.140625 C 14.011719 20.007812 13.796875 20.007812 13.660156 20.140625 C 13.527344 20.277344 13.527344 20.496094 13.660156 20.628906 Z M 14.742188 21.714844 " fill-opacity="1" fill-rule="nonzero"/><path fill="#000000" d="M 27.824219 26.894531 C 27.894531 26.960938 27.980469 26.996094 28.070312 26.996094 C 28.089844 26.996094 28.113281 26.992188 28.136719 26.988281 C 28.199219 26.976562 28.261719 26.945312 28.3125 26.894531 L 30.523438 24.679688 C 30.65625 24.542969 30.65625 24.324219 30.523438 24.191406 C 30.386719 24.054688 30.171875 24.054688 30.035156 24.191406 L 28.070312 26.164062 L 27.230469 25.324219 C 27.097656 25.1875 26.878906 25.1875 26.746094 25.324219 C 26.609375 25.457031 26.609375 25.675781 26.746094 25.808594 Z M 27.824219 26.894531 " fill-opacity="1" fill-rule="nonzero"/><path fill="#000000" d="M 20.996094 16.535156 C 21.066406 16.601562 21.152344 16.636719 21.242188 16.636719 C 21.328125 16.636719 21.417969 16.601562 21.484375 16.535156 L 23.695312 14.316406 C 23.828125 14.183594 23.828125 13.964844 23.695312 13.828125 C 23.558594 13.695312 23.339844 13.695312 23.207031 13.828125 L 21.242188 15.800781 L 20.402344 14.960938 C 20.269531 14.828125 20.050781 14.828125 19.917969 14.960938 C 19.78125 15.097656 19.78125 15.316406 19.917969 15.449219 Z M 20.996094 16.535156 " fill-opacity="1" fill-rule="nonzero"/><g clip-path="url(#d09acd5139)"><path fill="#000000" d="M 34.59375 31.835938 L 3.046875 31.835938 C 2.859375 31.835938 2.703125 31.988281 2.703125 32.179688 C 2.703125 32.371094 2.859375 32.523438 3.046875 32.523438 L 34.59375 32.523438 C 34.78125 32.523438 34.9375 32.371094 34.9375 32.179688 C 34.9375 31.988281 34.78125 31.835938 34.59375 31.835938 Z M 34.59375 31.835938 " fill-opacity="1" fill-rule="nonzero"/></g><g clip-path="url(#1c5087254c)"><path fill="#000000" d="M 34.59375 33.28125 L 3.046875 33.28125 C 2.859375 33.28125 2.703125 33.433594 2.703125 33.625 C 2.703125 33.816406 2.859375 33.972656 3.046875 33.972656 L 34.59375 33.972656 C 34.78125 33.972656 34.9375 33.816406 34.9375 33.625 C 34.9375 33.433594 34.78125 33.28125 34.59375 33.28125 Z M 34.59375 33.28125 " fill-opacity="1" fill-rule="nonzero"/></g></svg>