<svg xmlns="http://www.w3.org/2000/svg" xmlns:xlink="http://www.w3.org/1999/xlink" width="50" zoomAndPan="magnify" viewBox="0 0 37.5 37.499999" height="50" preserveAspectRatio="xMidYMid meet" version="1.0"><defs><clipPath id="b192b65b8e"><path d="M 4.347656 2.8125 L 32.847656 2.8125 L 32.847656 35 L 4.347656 35 Z M 4.347656 2.8125 " clip-rule="nonzero"/></clipPath></defs><g clip-path="url(#b192b65b8e)"><path fill="#000000" d="M 29.808594 6.070312 L 31.535156 9.085938 L 31.535156 33.601562 L 9.347656 33.601562 C 8.285156 33.601562 7.339844 33.257812 6.691406 32.742188 C 6.035156 32.226562 5.683594 31.570312 5.683594 30.863281 C 5.683594 30.152344 6.035156 29.496094 6.691406 28.980469 C 7.339844 28.46875 8.285156 28.125 9.347656 28.125 L 28.953125 28.125 C 29.355469 28.125 29.808594 28.019531 29.808594 27.464844 Z M 8.675781 4.25 L 28.488281 4.25 L 28.488281 26.773438 L 9.347656 26.773438 C 7.910156 26.773438 6.660156 27.3125 5.683594 28.085938 L 5.683594 6.785156 C 5.683594 5.429688 6.957031 4.25 8.675781 4.25 Z M 29.078125 2.894531 L 8.675781 2.894531 C 6.347656 2.894531 4.359375 4.582031 4.359375 6.785156 L 4.359375 31.101562 C 4.359375 32.199219 5.023438 33.136719 5.882812 33.8125 C 6.792969 34.53125 8.011719 34.949219 9.347656 34.949219 L 32.195312 34.949219 C 32.558594 34.949219 32.855469 34.648438 32.855469 34.273438 L 32.855469 8.902344 C 32.855469 8.78125 32.824219 8.664062 32.765625 8.558594 L 29.722656 3.230469 C 29.527344 2.890625 29.398438 2.894531 29.078125 2.894531 Z M 29.078125 2.894531 " fill-opacity="1" fill-rule="evenodd"/></g><path fill="#000000" d="M 11.195312 30.183594 C 10.3125 30.183594 10.3125 31.539062 11.195312 31.539062 L 28.746094 31.539062 C 29.113281 31.539062 29.410156 31.234375 29.410156 30.859375 C 29.410156 30.488281 29.113281 30.183594 28.746094 30.183594 Z M 11.195312 30.183594 " fill-opacity="1" fill-rule="nonzero"/><path fill="#000000" d="M 20.5625 7.5625 C 19.925781 7.5625 19.316406 7.949219 18.867188 8.640625 C 18.417969 9.332031 18.167969 10.269531 18.167969 11.246094 C 18.167969 13.023438 18.988281 14.546875 20.125 14.871094 L 20.125 19.628906 C 20.035156 20.382812 19.847656 21.988281 19.707031 23.164062 C 19.550781 24.476562 21.574219 24.476562 21.417969 23.164062 L 20.996094 19.621094 L 20.996094 14.871094 C 22.132812 14.550781 22.957031 13.027344 22.957031 11.246094 C 22.957031 9.210938 21.882812 7.5625 20.5625 7.5625 Z M 20.5625 7.5625 " fill-opacity="1" fill-rule="evenodd"/><path fill="#000000" d="M 12.582031 7.628906 C 12.402344 7.628906 12.253906 7.785156 12.257812 7.96875 L 12.257812 11.359375 C 12.257812 11.371094 12.261719 11.390625 12.261719 11.402344 C 12.296875 12.664062 12.726562 13.808594 13.402344 14.441406 C 13.621094 14.644531 13.859375 14.785156 14.109375 14.863281 L 14.109375 19.628906 C 14.019531 20.382812 13.828125 21.984375 13.691406 23.164062 C 13.535156 24.476562 15.554688 24.476562 15.398438 23.164062 L 14.980469 19.621094 L 14.980469 14.867188 C 15.230469 14.789062 15.46875 14.644531 15.6875 14.441406 C 16.359375 13.8125 16.785156 12.679688 16.824219 11.425781 C 16.828125 11.402344 16.832031 11.382812 16.832031 11.359375 L 16.832031 7.96875 C 16.832031 7.777344 16.683594 7.625 16.496094 7.628906 C 16.316406 7.628906 16.167969 7.785156 16.171875 7.96875 L 16.171875 11.246094 L 15.527344 11.246094 L 15.527344 7.96875 C 15.527344 7.777344 15.378906 7.625 15.191406 7.628906 C 15.011719 7.628906 14.863281 7.785156 14.867188 7.96875 L 14.867188 11.246094 L 14.222656 11.246094 L 14.222656 7.96875 C 14.226562 7.777344 14.074219 7.625 13.886719 7.628906 C 13.707031 7.628906 13.558594 7.78125 13.5625 7.96875 L 13.5625 11.246094 L 12.917969 11.246094 L 12.917969 7.96875 C 12.917969 7.78125 12.769531 7.625 12.582031 7.628906 Z M 12.582031 7.628906 " fill-opacity="1" fill-rule="evenodd"/></svg>