<svg xmlns="http://www.w3.org/2000/svg" xmlns:xlink="http://www.w3.org/1999/xlink" width="50" zoomAndPan="magnify" viewBox="0 0 37.5 37.499999" height="50" preserveAspectRatio="xMidYMid meet" version="1.0"><defs><clipPath id="931634f338"><path d="M 6.125 3.589844 L 31.625 3.589844 L 31.625 33.589844 L 6.125 33.589844 Z M 6.125 3.589844 " clip-rule="nonzero"/></clipPath></defs><g clip-path="url(#931634f338)"><path fill="#000000" d="M 30.8125 33.410156 L 28.957031 31.503906 C 25.589844 28.042969 22.226562 24.578125 18.859375 21.117188 L 6.941406 33.40625 C 6.808594 33.542969 6.601562 33.589844 6.421875 33.519531 C 6.242188 33.449219 6.125 33.277344 6.125 33.089844 L 6.125 4.054688 C 6.125 3.796875 6.335938 3.589844 6.597656 3.589844 L 31.152344 3.589844 C 31.414062 3.589844 31.625 3.796875 31.625 4.054688 L 31.625 33.089844 C 31.625 33.277344 31.507812 33.449219 31.328125 33.519531 C 31.148438 33.589844 30.945312 33.546875 30.8125 33.410156 Z M 18.859375 19.984375 C 18.859375 19.984375 19.027344 19.984375 19.203125 20.128906 C 19.332031 20.234375 24.15625 25.195312 30.679688 31.929688 L 30.679688 4.515625 L 7.070312 4.515625 L 7.070312 31.929688 L 18.515625 20.128906 C 18.605469 20.035156 18.730469 19.984375 18.859375 19.984375 Z M 18.859375 19.984375 " fill-opacity="1" fill-rule="nonzero"/></g></svg>